<svg width="578" height="612" viewBox="0 0 578 612" fill="none" xmlns="http://www.w3.org/2000/svg">
<g id="croixrouge">
<g id="redcross">
<path id="path16" d="M518.5 610.388C480.256 603.538 442.949 584.954 394.5 548.617C334.432 503.566 274.253 445.814 231 391.708C226.325 385.86 221.863 381.171 221.083 381.288C217.658 381.801 183.601 442.379 151.813 504.5C142.806 522.1 132.658 540.905 129.26 546.288C111.953 573.712 91.9839 595.25 75 604.811C60.2564 613.111 37.9133 613.06 23.7858 604.694C14.6579 599.289 4.62948 586.151 1.58371 575.608C-0.434999 568.621 0.813123 555.539 4.21775 548C6.2864 543.419 52.465 471.28 73.6715 439.5C84.2759 423.608 88.56 416.849 99.0219 399.5C111.446 378.898 129.546 352.033 148.205 326.5C157.544 313.72 161.968 306.845 161.718 305.5C161.514 304.4 155.265 295.175 147.831 285C129.449 259.839 111.323 232.905 99.0404 212.5C88.13 194.375 86.3928 191.631 74.9816 174.5C47.2207 132.824 6.20413 68.4116 3.98 63C-2.99396 46.0313 0.537414 29.8487 14.421 15.1539C23.5473 5.4942 34.3537 0.989463 48.3391 1.01479C67.9374 1.05029 81.2288 7.92023 100.133 27.7857C118.786 47.386 129.539 63.9733 151.813 107.5C183.601 169.621 217.658 230.199 221.083 230.712C221.863 230.829 226.325 226.14 231 220.292C274.253 166.186 334.432 108.434 394.5 63.3829C427.824 38.3901 454.891 22.3766 480.619 12.433C522.409 -3.7185 559.161 -4.10865 572.826 11.4541C580.238 19.896 577.818 28.6631 565.41 38.3228C562.71 40.4253 549.579 47.4994 536.232 54.043C510.453 66.6813 494.811 76.2538 472 93.3516C416.606 134.872 348.692 201.132 302.534 258.69C285.868 279.474 269.556 302.874 269.556 306C269.556 309.126 285.868 332.526 302.534 353.31C348.692 410.868 416.606 477.128 472 518.648C494.811 535.746 510.453 545.319 536.232 557.957C549.579 564.501 562.71 571.575 565.41 573.677C577.818 583.337 580.238 592.104 572.826 600.546C568.971 604.936 562.079 608.533 553.769 610.492C545.919 612.343 529.14 612.293 518.5 610.388Z" fill="#AA0000"/>
</g>
</g>
</svg>
