<svg width="10" height="10" viewBox="0 0 10 10" fill="none" xmlns="http://www.w3.org/2000/svg">
<path d="M0.388298 9.61166C0.178978 9.40234 0.0708008 8.27982 0.0708008 6.31709V3.34001L1.19528 2.5753C1.81374 2.15471 2.88722 1.4817 3.58078 1.07974L4.84179 0.348907L6.75578 1.47223C9.75 3.22954 9.5958 2.96493 9.5958 6.34538C9.5958 8.2861 9.48726 9.4027 9.2783 9.61166C8.83382 10.0561 0.832778 10.0561 0.388298 9.61166ZM8.92439 9.23985C9.26944 8.8948 9.33503 8.31343 9.27402 6.14058L9.19892 3.466L7.21455 2.21593C6.12314 1.52839 5.05158 0.965866 4.8333 0.965866C4.61502 0.965866 3.54346 1.52839 2.45205 2.21593L0.467667 3.466L0.39257 6.14058C0.2909 9.76151 0.16877 9.6646 4.83329 9.6646C7.84635 9.6646 8.57534 9.58888 8.92438 9.23985H8.92439ZM1.78158 8.0625C1.40001 7.44511 2.19094 7.26692 4.98821 7.34009C7.34518 7.40169 7.87601 7.48858 7.87601 7.8125C7.87601 8.13714 7.33804 8.22297 4.9203 8.284C2.95025 8.3337 1.90356 8.25989 1.78158 8.0625ZM1.78158 6.47501C1.40001 5.85762 2.19094 5.67942 4.98821 5.75259C7.34518 5.81429 7.87601 5.90109 7.87601 6.22501C7.87601 6.54965 7.33804 6.63546 4.9203 6.69649C2.95025 6.74619 1.90356 6.6724 1.78158 6.47501ZM1.78158 4.8875C1.40001 4.27011 2.19094 4.09191 4.98821 4.16508C7.34518 4.22678 7.87601 4.31358 7.87601 4.6375C7.87601 4.96214 7.33804 5.04796 4.9203 5.10899C2.95025 5.15869 1.90356 5.08489 1.78158 4.8875Z" fill="black"/>
</svg>
