<svg width="159" height="131" viewBox="0 0 159 131" fill="none" xmlns="http://www.w3.org/2000/svg">
<g id="layer1">
<g id="base">
<path id="rect841" d="M124.838 128.262H0.0976562V130.359H124.838V128.262Z" fill="black"/>
</g>
<g id="poteau">
<path id="rect843" d="M51.4612 0.0282288H48.6659V128.612H51.4612V0.0282288Z" fill="black"/>
</g>
<g id="potence">
<path id="rect845" d="M158.381 0.0282288H51.4612V2.82352H158.381V0.0282288Z" fill="black"/>
</g>
<g id="support">
<path id="path849" d="M49.6932 35.9807C82.2303 1.1134 82.2303 1.1134 82.2303 1.1134" stroke="black" stroke-width="2.065"/>
</g>
<g id="corde">
<path id="rect851" d="M138.814 2.12469H137.067V27.6318H138.814V2.12469Z" fill="black"/>
</g>
<g id="tete">
<path id="path853" d="M137.766 44.4035C142.59 44.4035 146.501 40.4144 146.501 35.4935C146.501 30.5727 142.59 26.5835 137.766 26.5835C132.942 26.5835 129.031 30.5727 129.031 35.4935C129.031 40.4144 132.942 44.4035 137.766 44.4035Z" fill="#DCE0DB" stroke="black" stroke-width="2.06507"/>
</g>
<g id="corps">
<path id="rect2815" d="M137.416 45.4518H137.067V81.7906H137.416V45.4518Z" stroke="black" stroke-width="2.06507"/>
</g>
<g id="jambe_gauche">
<path id="path2821" d="M137.067 81.7906C124.838 94.7188 124.838 94.7188 124.838 94.7188" stroke="black" stroke-width="1.5875"/>
</g>
<g id="jambe_droite">
<path id="path2823" d="M137.416 81.7906C148.703 94.1092 148.703 94.1092 148.703 94.1092" stroke="black" stroke-width="1.5875"/>
</g>
<g id="bras_gauche">
<path id="path2825" d="M136.973 54.955C121.043 64.703 121.043 64.9596 121.043 64.9596" stroke="black" stroke-width="1.75137"/>
</g>
<g id="bras_droit">
<path id="path2827" d="M137.009 54.8904C152.574 64.2791 152.574 64.2791 152.574 64.2791" stroke="black" stroke-width="1.5875"/>
</g>
</g>
</svg>
