<?xml version="1.0" encoding="UTF-8" standalone="no"?>
<svg
   xmlns:dc="http://purl.org/dc/elements/1.1/"
   xmlns:cc="http://creativecommons.org/ns#"
   xmlns:rdf="http://www.w3.org/1999/02/22-rdf-syntax-ns#"
   xmlns:svg="http://www.w3.org/2000/svg"
   xmlns="http://www.w3.org/2000/svg"
   xmlns:xlink="http://www.w3.org/1999/xlink"
   xmlns:sodipodi="http://sodipodi.sourceforge.net/DTD/sodipodi-0.dtd"
   xmlns:inkscape="http://www.inkscape.org/namespaces/inkscape"
   inkscape:version="1.0 (4035a4fb49, 2020-05-01)"
   sodipodi:docname="red-cross-symbol-clip-wrong.svg"
   viewBox="0 0 709 612"
   height="612"
   width="709"
   id="svg2"
   version="1.1">
  <metadata
     id="metadata8">
    <rdf:RDF>
      <cc:Work
         rdf:about="">
        <dc:format>image/svg+xml</dc:format>
        <dc:type
           rdf:resource="http://purl.org/dc/dcmitype/StillImage" />
        <dc:title></dc:title>
      </cc:Work>
    </rdf:RDF>
  </metadata>
  <defs
     id="defs6" />
  <sodipodi:namedview
     inkscape:current-layer="g10"
     inkscape:window-maximized="1"
     inkscape:window-y="-8"
     inkscape:window-x="-8"
     inkscape:cy="363.6"
     inkscape:cx="511.82"
     inkscape:zoom="1.3888889"
     showgrid="false"
     id="namedview4"
     inkscape:window-height="1017"
     inkscape:window-width="1920"
     inkscape:pageshadow="2"
     inkscape:pageopacity="0"
     guidetolerance="10"
     gridtolerance="10"
     objecttolerance="10"
     borderopacity="1"
     bordercolor="#666666"
     pagecolor="#ffffff" />
  <g
     id="g10"
     inkscape:label="Image"
     inkscape:groupmode="layer">
    <image
       sodipodi:absref="F:\Images\red-cross-symbol-clip-wrong.png"
       xlink:href="../../../Images/red-cross-symbol-clip-wrong.png"
       width="709"
       height="612"
       preserveAspectRatio="none"
       style="image-rendering:optimizeQuality"
       id="image12" />
    <path
       id="path16"
       d="m 589.5,610.38771 c -38.24364,-6.84952 -75.55106,-25.4342 -124,-61.77058 C 405.43166,503.56628 345.25329,445.81385 302,391.70821 c -4.675,-5.84797 -9.13742,-10.53716 -9.9165,-10.42044 -3.42508,0.51317 -37.48243,61.09102 -69.27088,123.21223 -9.00621,17.6 -19.1548,36.40476 -22.55243,41.78836 -17.30754,27.42413 -37.27625,48.96159 -54.26019,58.52289 -14.74356,8.30005 -37.08668,8.2489 -51.214196,-0.11724 C 85.657894,599.28857 75.629493,586.15088 72.583721,575.60822 70.565013,568.62065 71.813132,555.5387 75.217759,548 c 2.068652,-4.58052 48.247221,-76.72029 69.453711,-108.5 10.6044,-15.89159 14.8885,-22.65139 25.35046,-40 12.42412,-20.60238 30.52403,-47.46735 49.18277,-73 9.33971,-12.78047 13.76324,-19.65469 13.51341,-21 -0.20427,-1.1 -6.4534,-10.325 -13.88695,-20.5 -18.38192,-25.16106 -36.50815,-52.09551 -48.79074,-72.5 -10.91037,-18.12489 -12.64762,-20.86883 -24.05879,-38 C 118.22071,132.8235 77.204144,68.411633 74.980013,63 68.006052,46.031336 71.53742,29.848705 85.420981,15.153858 94.547354,5.4941852 105.35372,0.98945069 119.33909,1.0147811 c 19.59832,0.035497 32.88976,6.905439 51.79433,26.7709119 18.65222,19.600287 29.40587,36.18762 51.6792,79.714307 31.78845,62.12121 65.8458,122.69906 69.27088,123.21223 0.77908,0.11672 5.2415,-4.57247 9.9165,-10.42044 43.25329,-54.10564 103.43166,-111.85807 163.5,-156.908921 33.32399,-24.992763 60.39117,-41.006286 86.11913,-50.949919 41.78998,-16.1514632 78.54214,-16.5416116 92.20644,-0.978832 7.41205,8.441856 4.99248,17.208992 -7.41526,26.868652 -2.70067,2.102523 -15.8309,9.17663 -29.17829,15.720238 C 581.4529,66.681321 565.81099,76.253834 543,93.351633 487.60556,134.87209 419.69154,201.13222 373.53439,258.69029 356.86782,279.47354 340.55584,302.87406 340.55584,306 c 0,3.12594 16.31198,26.52646 32.97855,47.30971 46.15715,57.55807 114.07117,123.8182 169.46561,165.33866 22.81099,17.0978 38.4529,26.67031 64.23202,39.30862 13.34739,6.54361 26.47762,13.61772 29.17829,15.72024 12.40774,9.65966 14.82731,18.4268 7.41526,26.86865 -3.8546,4.39015 -10.74608,7.98715 -19.05641,9.94648 -7.84992,1.85077 -24.62921,1.80099 -35.26916,-0.10465 z"
       style="fill:#aa0000" />
    <path
       id="path18"
       d="m 594.62,610.85097 c -8.33804,-1.42557 -11.48592,-2.08216 -18.72,-3.90465 -38.68526,-9.74598 -78.32418,-32.57857 -133.56,-76.9325 -28.87885,-23.18949 -48.31412,-40.75999 -78.89829,-71.32817 -25.09752,-25.08441 -36.5325,-37.48438 -53.15173,-57.63718 -5.38449,-6.52934 -11.6581,-13.81934 -13.94135,-16.2 l -4.15137,-4.32847 -2.08564,2.28086 c -5.96404,6.5223 -35.91512,60.15999 -64.86281,116.15914 -15.56145,30.10355 -23.11264,43.81421 -29.18753,52.9957 -16.25245,24.56366 -37.50065,46.28277 -52.34574,53.50581 -12.56671,6.11447 -29.40329,6.70747 -43.17737,1.52073 -11.48962,-4.32651 -24.968836,-20.28784 -27.934147,-33.07804 -1.629242,-7.02738 0.03349,-19.70345 3.46482,-26.41447 3.434698,-6.71762 33.869247,-54.34937 67.582087,-105.76973 8.30817,-12.672 19.77318,-30.654 25.4778,-39.96 13.5431,-22.09301 27.98144,-43.7117 46.40318,-69.48 8.20991,-11.484 15.59479,-22.23826 16.41083,-23.89836 l 1.48374,-3.01835 -2.03261,-3.10165 c -1.11793,-1.7059 -8.01226,-11.48541 -15.32073,-21.73224 C 194.27609,249.96889 181.84828,231.27171 166.9597,206.64 163.2496,200.502 152.54654,183.816 143.17514,169.56 115.05057,126.77625 87.30172,83.372623 77.795276,67.295466 72.454551,58.26331 70.695248,47.321228 73.006957,37.514241 75.950087,25.028569 87.245686,11.156649 98.963044,5.638044 110.59391,0.16017677 128.0617,0.07831579 141.25649,5.4398402 c 9.88832,4.0179869 23.40066,15.1749028 35.91665,29.6557838 16.52662,19.121145 23.67138,30.856462 52.05722,85.504376 28.48628,54.84126 56.75654,105.1023 61.56376,109.45278 l 1.53901,1.39278 4.08343,-4.31124 c 2.24589,-2.37119 8.48893,-9.65345 13.87342,-16.18279 16.72745,-20.28404 28.10311,-32.6105 53.50768,-57.97996 C 395.31987,121.49293 413.67198,104.95229 444.14,80.559526 479.45092,52.289533 508.39809,33.029585 534.44999,20.471941 561.45909,7.4529079 586.82655,0.72 608.86907,0.72 c 16.7261,0 27.60863,3.4530137 34.28481,10.878537 5.66608,6.302043 5.90034,11.707231 0.81119,18.716684 -4.79741,6.60763 -8.12208,8.702943 -37.8473,23.852568 C 577.05627,68.97914 562.98992,77.739372 538.90078,96.029158 496.09204,128.53188 439.92966,181.54786 398.46211,228.6 369.45039,261.51884 340.46,300.28344 340.46,306.15774 c 0,2.34412 10.22419,17.82834 22.47802,34.04226 45.09168,59.66408 120.79413,134.67282 182.00198,180.33418 19.42122,14.48832 33.9572,23.42378 58.30751,35.84236 32.65758,16.65528 35.89266,18.66263 40.66061,25.22976 5.02024,6.91462 4.91352,12.388 -0.35835,18.37715 -3.46326,3.93448 -8.56656,6.96623 -15.44977,9.17832 -4.35429,1.39937 -6.85222,1.64541 -18.36,1.80835 -7.326,0.10372 -14.13,0.0501 -15.12,-0.11915 z"
       style="fill:#aa0000;stroke:#000000;stroke-width:4.32" />
    <path
       id="path20"
       d=""
       style="fill:#aa0000;stroke:#000000;stroke-width:4.32" />
  </g>
</svg>
